# xmcd
#
# Track frame offsets:
#   150
#   15458
#   32168
#   50475
#   64053
#   78655
#   91451
#   107756
#   122594
#   145670
#   163603
#   182022
#   198723
#   217340
#   235114
#   249983
#   263163
#   278477
#   292690
#   307198
#
# Disc length: 4281 seconds
#
# Revision: 0
# Processed by: cddbd v1.5.2PL0 Copyright (c) Steve Scherf et al.
# Submitted via: uFREEDB ActiveX Control 1.5
#
DISCID=1e10b714
DTITLE=João Carreiro e Capataz - Turne 2010
DYEAR=2010
DGENRE=Country
TTITLE0=Volta pro meu coração
TTITLE1=É pra acabar
TTITLE2=Abertura/Lágrimas de crocodilo
TTITLE3=Faculdade da pinga
TTITLE4=Oi nóis traveis
TTITLE5=Caroline e João
TTITLE6=Preta
TTITLE7=Prefiro os tubarões
TTITLE8=Hoje eu sei/Agenda rabiscada
TTITLE9=Cada um com seus problemas
TTITLE10=Desatino
TTITLE11=Descartável
TTITLE12=Tá bagunçado, mais tem gerência
TTITLE13=Sábado/Te cuida coração
TTITLE14=Campo grande/Cuiabá
TTITLE15=Xique bacanizado
TTITLE16=O remédio é beber
TTITLE17=Exagerado
TTITLE18=Eu só sei te amar
TTITLE19=O que será que nós não tem
EXTD=
EXTT0=
EXTT1=
EXTT2=
EXTT3=
EXTT4=
EXTT5=
EXTT6=
EXTT7=
EXTT8=
EXTT9=
EXTT10=
EXTT11=
EXTT12=
EXTT13=
EXTT14=
EXTT15=
EXTT16=
EXTT17=
EXTT18=
EXTT19=
PLAYORDER=
